<svg xmlns="http://www.w3.org/2000/svg" viewBox="0 0 58 58">
    <path d="M44 18.394v21.141c0 2.722-2.207 4.929-4.929 4.929L22 44.535l-10 11v-11H4.929C2.207 44.535 0 42.328 0 39.606V18.465c0-2.722 2.207-4.929 4.929-4.929l34.141-.071c2.723 0 4.93 2.207 4.93 4.929z" fill="#ebba16"/>
    <path d="M53.071 2.535l-34.141-.07c-2.723 0-4.93 2.207-4.93 4.929v6.122l25.071-.052c2.722 0 4.929 2.207 4.929 4.93v18.441l7 7.7v-11h2.071c2.722 0 4.929-2.207 4.929-4.929V7.465c0-2.723-2.207-4.93-4.929-4.93z" fill="#ed8a19"/>
    <circle cx="11" cy="29.45" r="3" fill="#fff"/>
    <circle cx="22" cy="29.45" r="3" fill="#fff"/>
    <circle cx="33" cy="29.45" r="3" fill="#fff"/>
</svg>
