<svg xmlns="http://www.w3.org/2000/svg" width="50pt" height="50pt" viewBox="0 0 512 512">
	<path d="M511.1 220.8v69.6c0 9.3-3.7 17.6-10.2 25s-14.8 10.2-25 10.2H325.6v151.2c0 9.3-3.7 17.6-10.2 25-6.5 7.4-14.8 10.2-25 10.2h-69.6c-9.3 0-17.6-3.7-25-10.2-7.4-6.5-10.2-14.8-10.2-25V324.6H36.2c-9.3 0-17.6-3.7-25-10.2-7.4-6.5-10.2-14.8-10.2-25v-69.6c0-9.3 3.7-17.6 10.2-25 6.5-7.4 14.8-10.2 25-10.2h151.2V35.2c0-9.3 3.7-17.6 10.2-25 6.5-7.4 14.8-10.2 25-10.2h69.6c9.3 0 17.6 3.7 25 10.2 7.4 6.5 10.2 14.8 10.2 25v151.2h151.2c9.3 0 17.6 3.7 25 10.2 7.5 6.5 7.5 14 7.5 24.2z" fill="#626262"/>
</svg>
