<svg xmlns="http://www.w3.org/2000/svg" width="24" height="24" viewBox="0 0 18 18">
    <path d="M16.5703 12.9297C17.5078 11.625 18 10.1133 18 8.5507 18 4.082 13.961.4493 9 .4493S0 4.082 0 8.5508c0 4.4648 4.039 8.0976 9 8.0976 1.2773 0 2.5117-.2343 3.6719-.703 2.043 1.1796 4.8633 1.5859 4.9883 1.6015a.1329.1329 0 00.039.0039.2973.2973 0 00.2695-.168c.0586-.1133.0352-.2539-.0546-.3437-.6914-.6914-1.168-2.1485-1.3438-4.1094zm-3.7187 2.4258c-.6328-.3907-1.3399-.8438-1.504-.9766a.3016.3016 0 00-.4023-.086c-.0898.0548-.1445.1524-.1484.2579 0 .1758.0039.2304 1.2265.996-.9648.3321-1.9765.504-3.0234.504-4.6328 0-8.3984-3.3672-8.3984-7.5 0-4.1367 3.7656-7.5 8.3984-7.5 4.6328 0 8.3984 3.3633 8.3984 7.5 0 1.4687-.4765 2.8906-1.3789 4.1172a.311.311 0 00-.0586.203c.1055 1.25.3711 2.8477 1.0352 3.9454-1-.2031-2.8047-.6523-4.1445-1.461zm0 0"/>
</svg>
